<?xml version="1.0" standalone="no"?>
<!DOCTYPE svg PUBLIC "-//W3C//DTD SVG 20010904//EN"
 "http://www.w3.org/TR/2001/REC-SVG-20010904/DTD/svg10.dtd">
<svg version="1.0"
    xmlns="http://www.w3.org/2000/svg" width="2048.000000pt" height="2048.000000pt" viewBox="0 0 2048.000000 2048.000000" preserveAspectRatio="xMidYMid meet">

    <g transform="translate(0.000000,2048.000000) scale(0.100000,-0.100000)" fill="#213045" stroke="none">
        <path d="M10236 18978 c-3 -7 -16 -188 -30 -403 -46 -691 -76 -1103 -101
-1415 -13 -168 -36 -460 -50 -650 -29 -404 -49 -666 -75 -988 -10 -128 -16
-242 -13 -252 8 -29 57 -38 145 -27 l77 9 5 52 c3 28 8 202 11 386 9 551 16
889 25 1194 9 287 19 384 21 205 1 -52 2 -109 4 -128 1 -18 5 -198 9 -400 9
-510 28 -1305 31 -1309 1 -2 34 -6 72 -9 88 -7 140 8 149 44 7 26 -3 179 -51
773 -13 168 -34 431 -45 585 -11 154 -29 390 -40 525 -22 269 -83 1093 -105
1425 -8 116 -17 230 -20 255 -3 25 -6 66 -7 93 -2 47 -5 58 -12 35z"/>
        <path d="M6276 17988 c9 -31 137 -328 224 -523 40 -88 100 -225 135 -305 103
-240 328 -756 395 -905 34 -77 95 -216 135 -310 40 -93 130 -300 200 -460 70
-159 163 -373 207 -475 44 -102 88 -203 98 -225 10 -22 62 -139 115 -260 340
-767 542 -1207 598 -1303 30 -51 15 -47 -38 10 -27 29 -92 98 -144 153 -53 56
-163 176 -245 268 -82 92 -173 188 -201 215 -28 26 -80 85 -116 131 -35 46
-100 123 -144 170 -44 48 -118 131 -165 186 -47 54 -103 119 -126 144 -291
328 -379 427 -384 431 -11 10 -376 414 -410 454 -152 181 -550 617 -550 603 0
-4 96 -135 213 -291 225 -301 405 -542 552 -742 50 -67 123 -166 164 -220 180
-238 661 -885 703 -944 25 -36 80 -110 122 -165 273 -358 345 -453 381 -504
22 -32 65 -89 96 -127 30 -38 74 -96 98 -129 23 -33 71 -94 106 -135 75 -88
157 -202 131 -180 -11 8 -78 64 -150 123 -125 103 -482 376 -702 537 -56 41
-169 127 -251 191 -81 63 -267 205 -413 314 -146 110 -288 218 -316 240 -67
54 -201 155 -424 323 -102 76 -257 194 -345 261 -372 283 -676 512 -799 601
-72 53 -174 129 -226 169 -52 40 -156 118 -230 174 -74 55 -168 126 -208 156
-41 31 -93 69 -115 84 -43 29 248 -260 403 -400 47 -43 175 -165 285 -273 180
-175 442 -423 781 -735 65 -60 216 -202 334 -315 119 -113 240 -227 270 -254
30 -27 168 -160 305 -295 138 -135 369 -360 513 -500 145 -139 261 -256 258
-258 -2 -3 -51 24 -108 60 -57 35 -119 72 -138 82 -19 9 -73 39 -120 65 -168
94 -532 291 -905 490 -209 112 -429 230 -490 263 -60 33 -189 102 -285 152
-364 191 -545 288 -555 295 -5 4 -131 72 -280 150 -148 78 -326 173 -395 210
-69 37 -188 100 -265 140 -311 162 -564 295 -635 335 -97 55 -240 127 -240
121 0 -9 156 -123 285 -210 158 -105 230 -155 450 -312 152 -108 432 -304 705
-490 156 -107 446 -310 665 -464 113 -80 283 -199 379 -265 288 -197 432 -297
611 -422 94 -66 230 -161 303 -212 73 -51 140 -91 150 -89 14 3 18 17 22 80 3
42 7 79 10 81 3 3 30 1 59 -4 30 -4 56 -7 58 -5 5 5 -188 130 -527 341 -274
171 -370 231 -510 320 -142 91 -181 115 -325 205 -82 52 -222 141 -310 200
-88 58 -180 118 -205 132 -25 15 -54 34 -65 43 -23 19 -6 11 45 -20 37 -23
465 -270 590 -340 41 -23 197 -113 345 -200 149 -87 318 -186 378 -221 59 -34
107 -60 107 -58 0 3 7 -1 15 -10 8 -8 59 -40 112 -72 54 -32 184 -109 288
-172 310 -187 375 -220 545 -274 257 -82 662 -233 850 -316 156 -69 299 -122
305 -112 4 7 -47 56 -235 224 -19 18 -66 58 -105 90 -38 33 -129 112 -202 177
-72 65 -182 162 -245 216 -62 53 -196 171 -297 262 -215 194 -356 320 -536
476 -112 97 -245 225 -165 159 25 -20 480 -382 577 -458 103 -81 289 -234 445
-364 87 -73 230 -189 316 -258 86 -69 204 -166 262 -214 58 -48 146 -121 197
-161 50 -41 183 -147 295 -237 112 -89 246 -201 300 -249 100 -90 190 -153
218 -153 26 0 66 49 116 140 72 132 71 127 12 239 -98 186 -442 858 -519 1016
-43 88 -111 220 -150 294 -39 74 -192 378 -340 675 -148 298 -277 555 -285
571 -46 87 -218 432 -254 510 -23 50 -137 279 -252 510 -115 231 -218 440
-229 465 -19 45 -19 45 0 20 25 -31 183 -316 423 -760 19 -36 73 -135 120
-220 47 -85 114 -209 148 -275 35 -66 125 -235 200 -375 75 -140 154 -289 175
-330 46 -89 242 -458 330 -620 34 -63 81 -151 105 -195 23 -44 54 -100 67
-125 14 -25 44 -81 68 -125 44 -84 267 -495 365 -675 32 -58 81 -149 110 -202
61 -113 75 -119 120 -55 17 23 65 89 106 145 75 102 76 105 70 150 -3 26 -19
97 -36 157 -42 157 -130 519 -130 536 0 8 -21 35 -46 59 -109 107 -234 300
-288 443 -53 141 -68 231 -69 402 -1 167 10 231 69 407 19 56 34 113 34 126 0
13 -19 67 -41 120 -77 181 -151 357 -174 412 -13 30 -62 147 -110 260 -48 113
-102 241 -120 285 -32 79 -160 385 -236 563 -21 51 -39 94 -39 97 0 2 -13 32
-29 67 -16 35 -55 124 -86 198 -163 388 -190 451 -221 520 -18 41 -46 109 -63
152 -58 147 -205 471 -209 460 -2 -6 8 -48 22 -94 26 -88 54 -183 135 -468 51
-176 130 -445 240 -815 165 -557 277 -935 318 -1075 24 -85 62 -211 83 -280
21 -69 50 -168 65 -220 50 -178 127 -445 160 -555 19 -60 39 -130 45 -155 20
-80 231 -753 331 -1055 43 -132 79 -244 79 -250 0 -5 -17 22 -38 60 -21 39
-63 113 -93 165 -31 52 -95 169 -144 260 -49 91 -98 183 -110 205 -12 22 -39
72 -60 110 -21 39 -66 120 -100 180 -34 61 -77 139 -95 175 -18 36 -61 111
-96 167 -35 56 -64 104 -64 107 0 9 -149 276 -210 376 -31 52 -79 133 -105
180 -26 47 -84 148 -130 225 -105 179 -283 481 -414 705 -57 96 -117 198 -133
225 -17 28 -121 201 -231 385 -110 184 -268 448 -352 585 -83 138 -238 396
-345 575 -230 387 -330 550 -336 550 -3 0 -2 -10 2 -22z"/>
        <path d="M14133 17887 c-33 -51 -84 -133 -113 -182 -30 -50 -72 -121 -96 -160
-23 -38 -104 -173 -180 -300 -76 -126 -166 -275 -199 -330 -34 -55 -91 -149
-127 -210 -36 -60 -157 -261 -269 -445 -222 -367 -253 -419 -389 -655 -51 -88
-107 -182 -125 -210 -29 -46 -63 -102 -277 -470 -42 -71 -127 -218 -190 -325
-63 -107 -138 -240 -168 -295 -29 -55 -65 -118 -80 -140 -46 -68 -120 -204
-120 -219 0 -22 35 -37 67 -30 71 15 182 57 195 72 13 15 232 420 383 707 32
61 92 173 135 250 78 142 215 393 332 610 36 66 82 152 103 190 21 39 72 129
113 200 41 72 95 165 120 208 24 42 46 77 48 77 7 0 -216 -452 -649 -1315
-245 -489 -444 -891 -442 -893 2 -3 33 7 69 21 35 14 94 33 130 41 102 24 120
37 146 103 28 69 86 203 128 293 43 93 468 1060 647 1475 45 105 133 305 195
445 62 140 151 343 197 450 47 107 103 236 125 285 22 50 55 124 73 165 18 41
74 170 125 285 100 229 163 386 157 392 -2 2 -31 -38 -64 -90z"/>
        <path d="M12586 17658 c-27 -62 -79 -185 -116 -273 -37 -88 -80 -187 -95 -220
-15 -33 -85 -197 -155 -365 -70 -168 -172 -406 -225 -530 -53 -124 -108 -252
-122 -285 -13 -33 -32 -78 -42 -100 -37 -81 -204 -474 -310 -725 -22 -52 -65
-156 -96 -230 -107 -253 -125 -300 -125 -323 0 -13 14 -63 30 -113 69 -202 89
-432 55 -619 -29 -158 -29 -154 -10 -161 9 -4 32 0 50 9 31 15 37 25 64 114
67 218 102 337 151 513 45 160 157 541 222 750 11 36 46 155 78 265 68 235
157 533 207 695 19 63 59 196 88 295 29 99 83 281 120 405 72 241 92 308 180
610 83 284 114 400 106 400 -3 0 -28 -51 -55 -112z"/>
        <path d="M9151 17340 c-1 -14 28 -284 64 -600 36 -316 85 -755 110 -975 98
-877 91 -832 119 -822 34 13 197 151 202 171 5 23 -5 74 -86 416 -28 118 -59
256 -70 307 -11 50 -33 154 -49 230 -17 76 -47 215 -66 308 -20 94 -58 267
-85 385 -27 118 -65 294 -86 390 -20 96 -40 184 -45 195 -7 18 -8 18 -8 -5z"/>
        <path d="M11293 17210 c-18 -85 -53 -245 -78 -355 -26 -110 -69 -303 -96 -430
-43 -200 -128 -584 -174 -785 -99 -440 -115 -521 -105 -539 8 -17 39 -41 185
-145 20 -15 42 9 48 52 14 87 129 1110 188 1662 15 151 38 347 49 435 12 88
20 183 18 210 -3 44 -7 32 -35 -105z"/>
        <path d="M14488 15852 c-80 -86 -175 -190 -210 -231 -188 -219 -346 -396 -573
-642 -203 -219 -302 -330 -430 -480 -93 -108 -201 -236 -224 -263 -16 -18 -14
-19 64 -13 148 11 176 21 247 90 75 72 98 101 238 297 58 80 127 175 155 211
27 37 59 79 70 95 11 15 59 77 106 138 47 61 104 136 125 167 21 32 159 216
305 410 252 335 284 380 277 378 -2 0 -69 -71 -150 -157z"/>
        <path d="M15990 15544 c-284 -212 -400 -300 -555 -418 -101 -78 -383 -291
-960 -725 -214 -162 -454 -346 -533 -410 -79 -64 -156 -125 -171 -136 -15 -11
-57 -45 -92 -76 -35 -31 -86 -71 -114 -89 -165 -111 -580 -416 -810 -596 -71
-56 -179 -136 -240 -179 -60 -43 -146 -108 -190 -145 -148 -124 -290 -233
-264 -204 14 16 50 57 80 90 29 34 67 85 83 115 l30 54 -50 -40 c-78 -63 -344
-319 -402 -388 -78 -93 -195 -257 -248 -350 -26 -45 -61 -100 -79 -122 -47
-60 -98 -154 -91 -170 3 -8 11 -15 19 -15 22 0 129 79 244 181 59 52 133 112
163 134 30 21 98 75 150 120 52 44 120 101 150 126 30 25 120 99 200 165 80
65 179 146 220 178 41 33 111 89 155 126 44 36 184 151 310 255 127 104 239
198 250 208 35 33 337 273 501 398 54 42 133 102 174 134 l75 59 -85 -80 c-47
-44 -121 -111 -165 -149 -44 -38 -125 -110 -180 -160 -167 -150 -420 -372
-607 -533 -97 -83 -210 -182 -251 -219 -40 -38 -118 -106 -172 -153 -79 -68
-292 -258 -364 -326 -8 -7 -13 -16 -10 -18 6 -7 244 90 336 137 39 20 118 52
175 71 57 19 175 61 263 94 88 33 241 85 340 117 184 58 249 87 415 185 52 31
232 137 400 235 168 98 386 226 485 285 99 59 236 140 305 180 188 110 225
132 345 202 61 36 173 100 250 143 77 43 185 105 240 138 124 74 115 69 115
63 0 -2 -39 -28 -87 -57 -75 -45 -257 -163 -398 -259 -22 -15 -89 -57 -150
-95 -60 -37 -126 -78 -145 -90 -76 -50 -606 -382 -965 -605 -82 -51 -179 -113
-215 -137 l-65 -45 58 7 57 6 0 -48 c0 -69 11 -124 25 -130 13 -4 115 61 249
161 73 54 212 150 496 345 96 66 229 157 295 203 66 47 188 132 270 189 83 58
236 166 340 241 105 74 260 182 345 239 85 58 216 148 290 200 74 53 191 133
259 180 190 128 222 150 284 198 31 24 114 83 185 131 70 49 206 143 302 209
254 176 277 199 105 110 -77 -39 -232 -121 -345 -182 -113 -60 -290 -154 -395
-210 -104 -55 -275 -146 -380 -202 -104 -56 -242 -128 -305 -160 -108 -54
-212 -109 -560 -295 -80 -43 -282 -151 -450 -240 -168 -90 -422 -227 -565
-305 -143 -78 -305 -166 -360 -195 -55 -29 -228 -123 -385 -208 -269 -146
-341 -186 -451 -254 -48 -29 -63 -34 -57 -19 6 17 270 283 363 366 49 44 220
206 380 361 159 154 351 336 425 405 74 68 196 183 270 254 75 72 206 195 291
275 85 80 237 224 339 320 102 95 244 230 315 300 72 69 236 227 365 350 349
335 416 400 410 400 -3 0 -129 -93 -280 -206z m-75 -1460 c-24 -18 -83 -50
-73 -39 10 10 81 54 88 54 3 0 -4 -7 -15 -15z"/>
        <path d="M10088 14915 c-242 -46 -442 -187 -567 -399 -92 -155 -122 -262 -122
-431 -1 -171 39 -306 133 -452 148 -230 377 -367 663 -398 133 -14 353 44 483
128 94 61 238 207 288 292 125 216 149 496 60 723 -34 87 -119 224 -180 289
-98 106 -252 197 -392 234 -104 27 -266 33 -366 14z"/>
        <path d="M13060 13894 c-819 -126 -1677 -475 -2380 -970 -123 -86 -406 -321
-500 -414 -208 -207 -401 -433 -530 -625 -63 -93 -192 -332 -236 -436 -56
-132 -140 -422 -160 -554 -27 -174 -27 -672 0 -825 66 -371 243 -782 497
-1155 173 -254 466 -559 866 -901 113 -97 500 -364 703 -486 137 -82 473 -256
625 -323 302 -134 826 -327 842 -311 8 7 16 0 -92 72 -49 33 -127 89 -171 125
-45 35 -116 90 -158 123 -100 77 -467 441 -586 580 -424 499 -725 1045 -890
1616 -228 791 -190 1577 111 2283 169 396 331 652 615 977 352 403 804 747
1432 1091 160 88 189 112 156 136 -21 15 -21 15 -144 -3z"/>
        <path d="M3402 13410 c17 -10 389 -173 573 -250 50 -21 169 -72 265 -115 227
-99 450 -195 456 -195 3 0 42 -18 87 -41 106 -53 324 -146 463 -197 60 -22
170 -70 244 -106 74 -36 196 -90 270 -120 74 -30 187 -77 250 -104 330 -142
500 -212 519 -212 21 0 21 3 19 168 l-3 167 -200 67 c-313 104 -1309 425
-1500 483 -185 57 -670 213 -764 246 -80 28 -635 205 -676 215 -18 4 -18 4 -3
-6z"/>
        <path d="M17045 13413 c-11 -3 -249 -81 -530 -173 -280 -93 -584 -192 -675
-221 -274 -86 -930 -296 -1170 -374 -124 -40 -338 -110 -477 -154 -139 -45
-256 -87 -260 -94 -9 -14 -14 -259 -6 -301 5 -26 8 -28 44 -22 22 3 85 27 142
52 56 25 149 65 207 89 58 24 146 62 195 85 50 23 151 66 225 97 135 55 238
104 314 148 23 13 75 35 116 48 108 36 247 92 480 195 316 140 669 293 840
365 278 117 589 253 598 262 6 6 -14 5 -43 -2z"/>
        <path d="M9531 13083 c10 -43 19 -89 19 -103 0 -14 21 -106 46 -205 25 -99 51
-207 56 -240 16 -96 15 -95 66 -35 25 30 122 131 214 223 92 93 168 172 168
176 0 4 -56 21 -125 39 -144 36 -321 116 -402 180 -29 23 -54 42 -56 42 -3 0
4 -35 14 -77z"/>
        <path d="M3645 12564 c22 -9 162 -51 310 -95 149 -44 311 -93 360 -109 50 -16
214 -65 365 -109 151 -43 352 -102 445 -130 228 -70 434 -124 450 -118 7 3 15
21 19 40 l6 34 188 -39 c103 -21 255 -52 337 -67 83 -16 167 -36 187 -45 21
-9 76 -25 124 -36 104 -25 116 -19 112 49 l-3 46 -95 22 c-145 35 -559 120
-1715 352 -302 61 -615 124 -695 140 -234 49 -405 81 -421 80 -7 0 4 -7 26
-15z"/>
        <path d="M16805 12573 c-69 -16 -932 -190 -1130 -228 -132 -25 -323 -64 -425
-85 -102 -21 -266 -55 -365 -74 -99 -20 -263 -54 -365 -76 -102 -22 -276 -58
-387 -81 l-203 -42 0 -53 c0 -43 4 -54 19 -59 25 -8 151 21 223 51 31 13 110
33 175 44 65 12 197 37 293 57 96 21 191 37 210 37 32 1 35 -2 38 -31 4 -37
20 -41 76 -23 17 6 126 37 241 69 116 32 320 91 455 131 135 39 308 89 385
111 77 22 239 71 360 108 121 38 259 80 306 95 102 30 163 56 134 54 -11 0
-29 -2 -40 -5z"/>
        <path d="M6886 12334 c-3 -9 -6 -218 -6 -465 0 -323 -3 -449 -11 -449 -6 0
-106 31 -223 69 -116 37 -247 76 -291 86 -44 9 -123 30 -175 45 -52 16 -123
34 -158 41 -103 20 -97 48 -100 -431 -2 -380 -4 -410 -20 -410 -9 0 -75 15
-147 34 -185 49 -648 141 -739 148 -38 3 -40 2 -48 -32 -9 -42 -4 -3091 5
-3106 4 -7 87 -14 210 -18 434 -14 1042 -87 1378 -166 473 -111 708 -179 974
-285 721 -286 1285 -612 1966 -1136 90 -70 200 -158 244 -195 44 -38 136 -116
205 -173 69 -58 159 -135 201 -173 45 -40 86 -68 99 -68 14 0 72 46 163 128
195 176 448 382 742 604 192 145 332 241 513 353 118 73 182 120 182 135 0 14
-200 115 -467 236 l-52 23 -118 -78 c-66 -43 -135 -92 -154 -109 -19 -17 -78
-60 -132 -95 l-96 -65 22 40 c12 22 60 85 107 141 152 182 200 244 200 260 0
23 -72 75 -247 179 -83 50 -178 113 -210 140 -32 27 -107 82 -168 123 -60 41
-124 86 -140 99 -19 16 -35 22 -44 17 -11 -7 -30 -91 -82 -368 -19 -97 -26
-80 -79 175 -17 84 -47 201 -66 260 -57 174 -91 234 -199 352 -173 188 -259
293 -461 565 -151 203 -166 220 -314 344 -457 383 -982 664 -1575 846 -66 20
-132 41 -147 47 l-28 10 0 816 0 815 36 -6 c74 -12 551 -228 754 -342 186
-104 524 -329 644 -428 37 -31 62 -45 68 -39 5 5 23 70 38 143 16 74 38 175
49 224 11 50 21 111 21 137 0 42 -4 49 -37 75 -152 118 -566 360 -878 513
-173 85 -533 226 -805 315 -113 37 -379 115 -391 115 -4 0 -10 -7 -13 -16z
m-257 -1374 c86 -28 177 -60 204 -72 l47 -21 0 -594 c0 -648 0 -647 57 -676
15 -8 73 -25 128 -36 311 -67 820 -251 1075 -389 428 -231 844 -563 1133 -904
99 -117 201 -258 294 -406 83 -132 207 -361 200 -369 -2 -2 -29 25 -60 59
-143 163 -431 431 -586 548 -26 19 -78 60 -116 91 -263 212 -769 496 -1165
654 -164 66 -548 191 -715 233 -135 35 -243 56 -640 130 l-40 7 -3 898 c-2
824 -1 897 14 897 9 0 87 -23 173 -50z m-900 -625 c79 -20 154 -41 167 -47
l24 -11 0 -717 c0 -475 4 -727 10 -747 6 -17 21 -35 34 -41 26 -12 133 -29
406 -67 440 -61 1053 -233 1425 -401 680 -306 1205 -700 1654 -1243 103 -124
214 -271 206 -271 -3 0 -26 16 -51 36 -26 19 -64 44 -84 54 -21 11 -73 47
-116 82 -160 127 -553 378 -784 501 -58 30 -130 69 -160 86 -96 52 -428 200
-625 278 -219 87 -601 215 -790 267 -381 102 -975 202 -1412 237 l-153 12 0
101 c0 56 -2 514 -3 1020 l-2 918 55 -5 c30 -4 120 -22 199 -42z"/>
        <path d="M13430 12306 c-741 -211 -1448 -548 -1991 -951 -177 -131 -287 -229
-305 -270 -32 -77 -80 -536 -65 -625 9 -55 17 -70 38 -70 9 0 71 54 137 119
241 237 651 550 979 748 206 124 773 383 837 383 20 0 20 -8 18 -817 l-3 -816
-120 -37 c-546 -166 -996 -387 -1400 -688 -144 -108 -195 -159 -195 -197 0
-46 196 -435 218 -435 10 0 58 33 107 73 293 238 529 389 815 522 242 113 604
240 875 305 169 42 204 59 217 106 5 16 8 295 7 619 l-2 590 39 19 c40 21 368
126 391 126 18 0 16 123 14 -936 l-1 -862 -82 -12 c-138 -19 -475 -88 -614
-125 -154 -41 -622 -197 -746 -249 -185 -77 -359 -160 -488 -233 -315 -178
-350 -201 -350 -234 0 -10 19 -46 43 -81 52 -77 248 -308 262 -308 6 0 39 19
75 43 139 93 424 241 626 326 215 90 455 168 722 235 346 87 513 120 765 151
114 14 222 31 240 39 66 27 62 -24 62 775 0 399 4 731 8 738 9 14 337 94 396
96 l44 2 4 -995 c2 -547 2 -1004 -1 -1015 -5 -19 -18 -22 -153 -33 -545 -47
-1154 -157 -1598 -289 -262 -77 -849 -304 -889 -343 -18 -18 -18 -19 4 -55 12
-20 88 -90 169 -155 80 -66 162 -133 182 -150 l35 -30 85 38 c298 138 976 327
1420 396 371 58 724 93 1037 103 l212 6 1 26 c0 22 0 2952 -1 3079 0 41 -1 42
-34 42 -19 0 -68 -7 -108 -15 -40 -9 -149 -29 -243 -45 -93 -16 -255 -49 -358
-74 -104 -25 -192 -46 -197 -46 -5 0 -10 184 -12 410 -3 364 -5 411 -20 426
-15 15 -23 15 -110 -4 -108 -24 -370 -92 -443 -115 -196 -61 -378 -117 -381
-117 -2 0 -4 195 -4 434 0 258 -4 445 -10 460 -12 33 -19 32 -160 -8z"/>
        <path d="M14895 11680 c-16 -32 -21 -155 -6 -164 5 -3 182 -7 392 -8 211 0
474 -5 584 -9 110 -4 293 -9 408 -12 114 -2 210 -7 214 -10 3 -4 -25 -7 -63
-7 -38 0 -224 -7 -413 -15 -188 -8 -476 -15 -640 -17 -163 -1 -340 -4 -393 -6
l-98 -3 0 -90 c0 -68 3 -91 14 -95 8 -3 88 8 178 25 90 16 210 37 268 45 58 8
184 27 280 41 96 14 185 28 197 30 20 5 24 0 29 -35 4 -25 14 -45 26 -51 19
-10 230 3 908 56 173 14 421 31 550 40 578 36 1140 82 1153 94 4 4 -41 11
-100 14 -59 4 -196 13 -303 21 -315 24 -469 34 -955 61 -1101 60 -1438 80
-1796 105 -152 11 -308 20 -347 20 -69 0 -72 -1 -87 -30z"/>
        <path d="M5125 11684 c-306 -21 -678 -43 -995 -59 -162 -8 -407 -22 -545 -30
-137 -8 -371 -22 -520 -30 -717 -42 -1095 -68 -1095 -75 0 -7 501 -48 1035
-85 198 -14 414 -30 480 -35 66 -5 266 -21 445 -35 179 -14 403 -32 499 -41
198 -17 198 -17 208 55 l6 42 46 -6 c25 -4 96 -15 156 -25 61 -11 178 -28 260
-40 83 -11 224 -34 314 -51 137 -27 165 -30 173 -18 12 18 2 149 -12 163 -7 7
-104 13 -268 18 -721 19 -1193 38 -1187 48 2 4 170 10 372 14 202 4 388 9 413
11 25 2 185 7 355 10 352 7 335 2 335 92 0 86 -13 93 -162 92 -68 -1 -208 -7
-313 -15z"/>
        <path d="M13797 6153 c-51 -8 -57 -38 -57 -281 0 -163 3 -223 13 -236 12 -16
39 -18 267 -23 172 -4 264 -2 283 6 l27 11 0 239 c0 218 -2 241 -19 262 -18
23 -21 23 -252 25 -129 1 -246 0 -262 -3z"/>
        <path d="M10514 5446 c-18 -14 -19 -28 -19 -260 0 -223 2 -247 18 -263 16 -16
39 -18 269 -15 138 2 259 7 268 12 15 8 20 29 25 107 9 121 1 391 -13 405 -21
21 -95 28 -308 28 -175 0 -224 -3 -240 -14z"/>
        <path d="M13370 5450 c-22 -14 -29 -510 -7 -528 18 -15 402 -29 490 -18 44 6
60 12 69 29 8 15 12 95 12 265 1 204 -2 244 -14 252 -20 13 -530 13 -550 0z"/>
        <path d="M14158 5450 c-16 -10 -18 -33 -18 -253 0 -133 4 -247 8 -253 20 -30
55 -34 296 -34 232 0 246 1 256 19 6 12 10 112 10 254 0 225 -1 235 -21 253
-19 17 -41 19 -268 22 -159 1 -252 -2 -263 -8z"/>
        <path d="M6396 4650 c-179 -29 -372 -104 -499 -194 -118 -84 -256 -250 -297
-356 -7 -19 -17 -40 -22 -46 -14 -19 -48 -135 -58 -202 -18 -107 -13 -272 9
-366 27 -112 61 -185 131 -282 33 -45 60 -87 60 -93 0 -8 -111 -11 -370 -11
-358 0 -370 -1 -380 -20 -13 -23 -10 -1578 3 -1597 12 -18 2007 -19 2025 -1 9
9 12 82 12 268 0 292 3 280 -85 300 -35 8 -241 10 -692 8 -353 -2 -645 1 -649
5 -5 4 -10 104 -12 222 l-4 214 1353 4 c1464 4 1427 3 1573 58 85 31 182 89
224 131 20 22 49 48 65 59 l27 21 68 -62 c76 -70 224 -148 332 -175 36 -9 126
-20 200 -25 187 -10 3944 -11 4105 0 160 10 256 30 361 73 93 39 160 83 222
144 23 24 46 43 51 43 5 0 38 -28 73 -63 115 -115 262 -178 460 -197 148 -15
803 -9 818 6 16 16 17 2051 1 2067 -8 8 -98 11 -287 12 -262 0 -276 -1 -290
-19 -12 -17 -14 -135 -14 -748 l0 -728 -22 -1 c-359 -8 -463 19 -523 136 l-30
59 -5 555 c-3 306 -9 562 -13 569 -12 18 -560 18 -575 -1 -8 -9 -12 -190 -14
-573 l-3 -559 -30 -59 c-25 -50 -39 -65 -85 -90 l-55 -31 -199 -3 c-158 -3
-200 -1 -207 10 -5 7 -9 268 -9 580 0 312 -3 569 -7 571 -5 3 -136 7 -293 8
l-285 4 -3 -579 c-1 -416 -5 -583 -14 -593 -9 -11 -78 -13 -379 -13 -202 1
-377 4 -388 7 l-21 5 0 703 c0 386 -3 717 -6 734 -4 17 -15 36 -25 41 -10 6
-226 10 -541 10 -555 1 -621 -4 -771 -50 -354 -110 -608 -396 -671 -757 -40
-228 -3 -424 114 -610 16 -26 30 -53 30 -61 0 -11 -56 -13 -327 -10 -366 4
-383 7 -462 75 -46 39 -75 89 -87 148 -4 22 -8 272 -8 556 -1 422 -4 519 -15
532 -12 15 -44 17 -285 17 -198 0 -275 -3 -284 -12 -9 -9 -12 -145 -12 -548 0
-580 -1 -590 -54 -671 -16 -23 -47 -50 -79 -66 l-52 -28 -865 0 c-825 0 -868
1 -920 19 -122 42 -243 156 -282 264 -26 72 -37 278 -18 359 31 140 131 268
245 312 90 36 277 42 374 12 69 -21 140 -66 187 -119 13 -15 44 -67 70 -115
31 -61 53 -91 70 -98 35 -13 113 -11 330 6 231 19 239 22 229 101 -18 144 -96
331 -183 440 -61 76 -190 186 -266 229 -83 46 -208 91 -324 115 -111 24 -370
35 -466 20z m4733 -569 c13 -8 18 -312 13 -823 l-2 -158 -167 0 c-95 1 -201 7
-243 14 -224 40 -357 181 -389 410 -42 301 151 525 479 555 119 11 292 12 309
2z"/>
        <path d="M7935 2033 c-16 -2 -36 -9 -42 -15 -17 -14 -19 -503 -2 -514 18 -11
528 -5 550 6 18 10 19 25 19 254 0 206 -2 246 -15 256 -11 9 -79 14 -248 16
-127 1 -245 0 -262 -3z"/>
        <path d="M8700 2033 c-37 -14 -40 -32 -40 -268 0 -184 3 -235 14 -251 14 -18
28 -19 274 -19 203 0 263 3 276 14 14 12 16 44 16 256 0 213 -2 244 -17 256
-12 11 -70 14 -262 16 -135 1 -253 -1 -261 -4z"/>
    </g>
</svg>
