<?xml version="1.0" encoding="UTF-8" standalone="no"?>
<svg width="50" height="50" viewBox="0 0 50 50" version="1.1" id="svg52" sodipodi:docname="icon.svg" xml:space="preserve" inkscape:export-filename="icon.png" inkscape:export-xdpi="192" inkscape:export-ydpi="192" inkscape:version="1.2.2 (b0a8486541, 2022-12-01)"
  xmlns:inkscape="http://www.inkscape.org/namespaces/inkscape"
  xmlns:sodipodi="http://sodipodi.sourceforge.net/DTD/sodipodi-0.dtd"
  xmlns:svg="http://www.w3.org/2000/svg">
  <defs id="defs56" />
  <sodipodi:namedview id="namedview54" pagecolor="#ffffff" bordercolor="#000000" borderopacity="0.25" inkscape:showpageshadow="2" inkscape:pageopacity="0.0" inkscape:pagecheckerboard="0" inkscape:deskcolor="#d1d1d1" showgrid="false" inkscape:zoom="13.503215" inkscape:cx="23.549947" inkscape:cy="37.139303" inkscape:window-width="1920" inkscape:window-height="1052" inkscape:window-x="0" inkscape:window-y="0" inkscape:window-maximized="1" inkscape:current-layer="g807" />
  <path d="M32 25a7 7 0 1 1-14 0 7 7 0 0 1 14 0Z" fill="#fdbb45" id="path46" style="fill:#fdbb45;fill-opacity:1" />
  <path d="M25 46C13.402 46 4 36.598 4 25S13.402 4 25 4s21 9.402 21 21c0 5.799-2.35 11.049-6.15 14.85l-6.365-6.365A11.964 11.964 0 0 0 37 25c0-6.627-5.373-12-12-12s-12 5.373-12 12 5.373 12 12 12v9Z" fill="#1AD3BB" id="path48" />
  <path fill-rule="evenodd" clip-rule="evenodd" d="M25 37a11.958 11.958 0 0 1-8.345-3.377A9 9 0 0 0 25 46h13a9 9 0 0 0-9-9h-4Z" fill="#fdbb45" id="path50" style="fill:#fdbb45;fill-opacity:1" />
  <script />
  <script type="module" />
</svg>
